<svg width="18" height="18" viewBox="0 0 18 18" fill="none" xmlns="http://www.w3.org/2000/svg">
                                                   <path fill-rule="evenodd" clip-rule="evenodd" d="M1.60355 7.98635C2.83622 11.8048 7.7062 14.8923 9.0004 15.6565C10.299 14.8844 15.2042 11.7628 16.3973 7.98985C17.1806 5.55102 16.4535 2.46177 13.5644 1.53473C12.1647 1.08741 10.532 1.35966 9.40484 2.22804C9.16921 2.40837 8.84214 2.41187 8.60476 2.23329C7.41078 1.33952 5.85105 1.07778 4.42936 1.53473C1.54465 2.4609 0.820172 5.55014 1.60355 7.98635ZM9.00138 17.0711C8.89236 17.0711 8.78421 17.0448 8.68574 16.9914C8.41055 16.8417 1.92808 13.2841 0.348132 8.3872C0.347252 8.3872 0.347252 8.38633 0.347252 8.38633C-0.644504 5.30321 0.459792 1.42874 4.02502 0.284605C5.69904 -0.254635 7.52342 -0.0174044 8.99874 0.909632C10.4283 0.00973263 12.3275 -0.238878 13.9681 0.284605C17.5368 1.43049 18.6446 5.30408 17.6538 8.38633C16.1248 13.2272 9.59485 16.8382 9.3179 16.9896C9.21943 17.0439 9.1104 17.0711 9.00138 17.0711Z" fill="currentColor"/>
                                                   <path fill-rule="evenodd" clip-rule="evenodd" d="M14.203 6.67473C13.8627 6.67473 13.5743 6.41474 13.5462 6.07159C13.4882 5.35202 13.0046 4.7445 12.3162 4.52302C11.9689 4.41097 11.779 4.04068 11.8906 3.69666C12.0041 3.35175 12.3724 3.16442 12.7206 3.27297C13.919 3.65901 14.7586 4.71561 14.8615 5.96479C14.8905 6.32632 14.6206 6.64322 14.2575 6.6721C14.239 6.67385 14.2214 6.67473 14.203 6.67473Z" fill="currentColor"/>
                                                </svg>